<svg width="21" height="21" viewBox="0 0 21 21" fill="none" xmlns="http://www.w3.org/2000/svg">
<path d="M10.5 0C10.0929 0 9.76287 0.33 9.76287 0.737143V14.9314L7.24287 12.4114C6.95573 12.1243 6.48858 12.1243 6.20144 12.4114C5.9143 12.6986 5.9143 13.1657 6.20144 13.4529L9.97716 17.2286C10.1186 17.37 10.3072 17.4429 10.4957 17.4429C10.6843 17.4429 10.8729 17.37 11.0143 17.2286L14.79 13.4529C15.0772 13.1657 15.0772 12.6986 14.79 12.4114C14.5029 12.1243 14.0357 12.1243 13.7486 12.4114L11.2286 14.9314V0.732857C11.2329 0.325714 10.9072 0 10.5 0Z" fill="#3C3C3C" fill-opacity="0.68"/>
<path d="M19.8043 20.2671V15.9943C19.8043 15.5871 19.4743 15.2571 19.0671 15.2571C18.66 15.2571 18.33 15.5871 18.33 15.9943V19.5343H2.66568V15.9943C2.66568 15.5871 2.33568 15.2571 1.93282 15.2571C1.52996 15.2571 1.19568 15.5871 1.19568 15.9943V20.2671C1.19568 20.6743 1.52568 21 1.93282 21H19.0671C19.4743 21 19.8043 20.6743 19.8043 20.2671Z" fill="#3C3C3C" fill-opacity="0.68"/>
</svg>
