<svg width="21" height="21" viewBox="0 0 21 21" fill="none" xmlns="http://www.w3.org/2000/svg">
<path d="M11.8125 18.375C13.37 18.375 14.8926 17.9131 16.1876 17.0478C17.4827 16.1825 18.492 14.9526 19.0881 13.5136C19.6841 12.0747 19.84 10.4913 19.5362 8.96366C19.2323 7.43606 18.4823 6.03287 17.381 4.93153C16.2796 3.8302 14.8764 3.08017 13.3488 2.77632C11.8212 2.47246 10.2378 2.62841 8.79887 3.22445C7.3599 3.82049 6.12999 4.82985 5.26468 6.12488C4.39936 7.41992 3.9375 8.94247 3.9375 10.5V14.5688L1.575 12.2063L0.65625 13.125L4.59375 17.0625L8.53125 13.125L7.6125 12.2063L5.25 14.5688V10.5C5.25 9.20206 5.63488 7.93327 6.35598 6.85407C7.07708 5.77487 8.102 4.93374 9.30114 4.43704C10.5003 3.94034 11.8198 3.81038 13.0928 4.0636C14.3658 4.31681 15.5351 4.94183 16.4529 5.85961C17.3707 6.77739 17.9957 7.94672 18.2489 9.21972C18.5021 10.4927 18.3722 11.8122 17.8755 13.0114C17.3788 14.2105 16.5376 15.2354 15.4584 15.9565C14.3792 16.6776 13.1104 17.0625 11.8125 17.0625V18.375Z" fill="#3C3C3C" fill-opacity="0.68"/>
</svg>
