<svg width="20" height="20" viewBox="0 0 20 20" fill="none" xmlns="http://www.w3.org/2000/svg">
<path d="M16.875 3.125H3.125C2.7936 3.12538 2.47587 3.2572 2.24154 3.49154C2.0072 3.72587 1.87538 4.0436 1.875 4.375V15.625C1.87538 15.9564 2.0072 16.2741 2.24154 16.5085C2.47587 16.7428 2.7936 16.8746 3.125 16.875H16.875C17.2064 16.8746 17.5241 16.7428 17.7585 16.5085C17.9928 16.2741 18.1246 15.9564 18.125 15.625V4.375C18.1246 4.0436 17.9928 3.72587 17.7585 3.49154C17.5241 3.2572 17.2064 3.12538 16.875 3.125ZM14.375 10.625C14.375 10.7908 14.3091 10.9497 14.1919 11.0669C14.0747 11.1841 13.9158 11.25 13.75 11.25H7.75891L8.56697 12.058C8.62501 12.1161 8.67105 12.185 8.70247 12.2608C8.73388 12.3366 8.75004 12.4179 8.75004 12.5C8.75004 12.5821 8.73388 12.6634 8.70247 12.7392C8.67105 12.815 8.62501 12.8839 8.56697 12.942C8.50893 13 8.44003 13.0461 8.3642 13.0775C8.28836 13.1089 8.20708 13.125 8.125 13.125C8.04292 13.125 7.96164 13.1089 7.88581 13.0775C7.80998 13.0461 7.74107 13 7.68303 12.942L5.80803 11.067C5.80361 11.0625 5.79987 11.0578 5.79563 11.0532C5.78583 11.0429 5.77603 11.0325 5.76695 11.0215C5.75981 11.0128 5.75356 11.0038 5.747 10.9948C5.7415 10.9874 5.73571 10.9801 5.73052 10.9724C5.72388 10.9625 5.71808 10.9523 5.71209 10.9421C5.70774 10.9347 5.70309 10.9275 5.69905 10.92C5.69363 10.9099 5.68901 10.8995 5.68421 10.8892C5.68035 10.881 5.67623 10.8729 5.67272 10.8645C5.66864 10.8546 5.66528 10.8445 5.66174 10.8344C5.65845 10.8252 5.65491 10.8161 5.65205 10.8067C5.649 10.7966 5.64675 10.7864 5.64419 10.7762C5.64179 10.7666 5.63908 10.7571 5.63713 10.7474C5.63481 10.7355 5.63336 10.7236 5.63172 10.7116C5.63057 10.7033 5.62897 10.6953 5.62813 10.6869C5.62405 10.6457 5.62405 10.6043 5.62813 10.5631C5.62897 10.5547 5.63057 10.5466 5.63172 10.5384C5.63336 10.5264 5.63481 10.5145 5.63713 10.5026C5.63908 10.4929 5.64179 10.4834 5.64419 10.4738C5.64675 10.4636 5.649 10.4534 5.65205 10.4433C5.65491 10.4339 5.65845 10.4248 5.66174 10.4156C5.66528 10.4055 5.66864 10.3954 5.67272 10.3855C5.67623 10.3771 5.68035 10.369 5.68421 10.3608C5.68901 10.3505 5.69363 10.3401 5.69905 10.33C5.70309 10.3225 5.70774 10.3153 5.71209 10.3079C5.71808 10.2977 5.72388 10.2875 5.73052 10.2776C5.73571 10.2699 5.7415 10.2626 5.747 10.2552C5.75356 10.2462 5.75981 10.2372 5.76695 10.2285C5.77603 10.2175 5.78583 10.2071 5.79563 10.1968C5.79987 10.1922 5.80361 10.1874 5.80803 10.183L7.68303 8.30802C7.80025 8.19081 7.95923 8.12495 8.125 8.12495C8.29077 8.12495 8.44976 8.19081 8.56697 8.30802C8.68419 8.42524 8.75004 8.58422 8.75004 8.75C8.75004 8.91577 8.68419 9.07475 8.56697 9.19197L7.75891 10H13.125V8.125C13.125 7.95924 13.1908 7.80027 13.3081 7.68306C13.4253 7.56585 13.5842 7.5 13.75 7.5C13.9158 7.5 14.0747 7.56585 14.1919 7.68306C14.3092 7.80027 14.375 7.95924 14.375 8.125V10.625Z" fill="#3C3C3C" fill-opacity="0.68"/>
</svg>
