<svg width="13" height="13" viewBox="0 0 13 13" fill="none" xmlns="http://www.w3.org/2000/svg">
<path d="M11.9167 2.30209C11.9167 2.19434 11.8739 2.09101 11.7977 2.01482C11.7215 1.93864 11.6182 1.89584 11.5104 1.89584C11.4027 1.89584 11.2993 1.93864 11.2232 2.01482C11.147 2.09101 11.1042 2.19434 11.1042 2.30209V10.4271C11.1042 10.5348 11.147 10.6382 11.2232 10.7143C11.2993 10.7905 11.4027 10.8333 11.5104 10.8333C11.6182 10.8333 11.7215 10.7905 11.7977 10.7143C11.8739 10.6382 11.9167 10.5348 11.9167 10.4271V2.30209ZM6.65166 10.0371C6.61447 10.077 6.56962 10.109 6.51979 10.1312C6.46996 10.1534 6.41616 10.1654 6.36161 10.1663C6.30707 10.1673 6.25288 10.1573 6.2023 10.1368C6.15171 10.1164 6.10576 10.086 6.06719 10.0474C6.02861 10.0088 5.9982 9.96287 5.97776 9.91228C5.95733 9.8617 5.9473 9.80752 5.94826 9.75297C5.94922 9.69842 5.96116 9.64463 5.98337 9.59479C6.00557 9.54496 6.03758 9.50011 6.0775 9.46292L8.76958 6.77084H0.947914C0.84017 6.77084 0.736839 6.72803 0.660652 6.65185C0.584465 6.57566 0.541664 6.47233 0.541664 6.36459C0.541664 6.25684 0.584465 6.15351 0.660652 6.07732C0.736839 6.00114 0.84017 5.95834 0.947914 5.95834H8.76958L6.0775 3.26625C6.00574 3.18924 5.96667 3.08738 5.96853 2.98214C5.97038 2.87689 6.01302 2.77647 6.08745 2.70204C6.16188 2.62761 6.2623 2.58497 6.36755 2.58312C6.47279 2.58126 6.57465 2.62033 6.65166 2.69209L10.0371 6.0775C10.1132 6.15368 10.1559 6.25693 10.1559 6.36459C10.1559 6.47224 10.1132 6.5755 10.0371 6.65167L6.65166 10.0371Z" fill="#3C3C3C" fill-opacity="0.68"/>
</svg>
