<?xml version="1.0" encoding="iso-8859-1"?>
<!-- Generator: Adobe Illustrator 19.0.0, SVG Export Plug-In . SVG Version: 6.00 Build 0)  -->
<svg version="1.1" id="Capa_1" xmlns="http://www.w3.org/2000/svg" xmlns:xlink="http://www.w3.org/1999/xlink" x="0px" y="0px"
	 viewBox="0 0 59 59" style="enable-background:new 0 0 59 59;" xml:space="preserve">
<rect x="12" y="0.5" style="fill:#E6E6E6;" width="35" height="26"/>
<path style="fill:#6C797A;" d="M35,15.5H17c-0.552,0-1-0.447-1-1s0.448-1,1-1h18c0.552,0,1,0.447,1,1S35.552,15.5,35,15.5z"/>
<path style="fill:#6C797A;" d="M23,19.5h-6c-0.552,0-1-0.447-1-1s0.448-1,1-1h6c0.552,0,1,0.447,1,1S23.552,19.5,23,19.5z"/>
<path style="fill:#6C797A;" d="M39,19.5h-6c-0.552,0-1-0.447-1-1s0.448-1,1-1h6c0.552,0,1,0.447,1,1S39.552,19.5,39,19.5z"/>
<path style="fill:#6C797A;" d="M28,19.5c-0.26,0-0.52-0.11-0.71-0.29C27.11,19.02,27,18.76,27,18.5s0.11-0.521,0.29-0.71
	c0.38-0.37,1.04-0.37,1.42,0C28.89,17.979,29,18.24,29,18.5s-0.11,0.52-0.29,0.71C28.52,19.39,28.26,19.5,28,19.5z"/>
<path style="fill:#6C797A;" d="M33,23.5H22c-0.552,0-1-0.447-1-1s0.448-1,1-1h11c0.552,0,1,0.447,1,1S33.552,23.5,33,23.5z"/>
<path style="fill:#6C797A;" d="M17,23.5c-0.26,0-0.52-0.101-0.71-0.29C16.11,23.02,16,22.76,16,22.5s0.11-0.521,0.29-0.71
	c0.38-0.37,1.06-0.37,1.42,0.01c0.18,0.18,0.29,0.44,0.29,0.7s-0.11,0.52-0.29,0.71C17.52,23.39,17.26,23.5,17,23.5z"/>
<rect x="6" y="51.5" style="fill:#47A083;" width="48" height="4"/>
<rect x="8" y="55.5" style="fill:#38454F;" width="6" height="3"/>
<rect x="46" y="55.5" style="fill:#38454F;" width="6" height="3"/>
<path style="fill:#71C3A9;" d="M52,31.5H8v11c0,3.55-0.775,6.729-2,8.926V51.5h48v-0.074c-1.225-2.197-2-5.377-2-8.926V31.5z"/>
<polygon style="fill:#434C6D;" points="5,26.5 5,34.5 8,34.5 8,31.5 52,31.5 52,34.5 52,34.5 52,26.5 "/>
<path style="fill:#38454F;" d="M57.678,34.5H52V23.822c0-0.73,0.592-1.322,1.322-1.322h4.356c0.73,0,1.322,0.592,1.322,1.322v9.356
	C59,33.908,58.408,34.5,57.678,34.5z"/>
<rect x="52" y="25.5" style="fill:#546A79;" width="7" height="2"/>
<rect x="52" y="29.5" style="fill:#546A79;" width="7" height="2"/>
<g>
	<path style="fill:#E7ECED;" d="M16,43.5h-4c-0.552,0-1,0.447-1,1s0.448,1,1,1h1v2c0,0.553,0.448,1,1,1s1-0.447,1-1v-2h1
		c0.552,0,1-0.447,1-1S16.552,43.5,16,43.5z"/>
	<path style="fill:#E7ECED;" d="M24,43.5h-4c-0.552,0-1,0.447-1,1s0.448,1,1,1h1v2c0,0.553,0.448,1,1,1s1-0.447,1-1v-2h1
		c0.552,0,1-0.447,1-1S24.552,43.5,24,43.5z"/>
	<path style="fill:#E7ECED;" d="M32,43.5h-4c-0.552,0-1,0.447-1,1s0.448,1,1,1h1v2c0,0.553,0.448,1,1,1s1-0.447,1-1v-2h1
		c0.552,0,1-0.447,1-1S32.552,43.5,32,43.5z"/>
	<path style="fill:#E7ECED;" d="M40,43.5h-4c-0.552,0-1,0.447-1,1s0.448,1,1,1h1v2c0,0.553,0.448,1,1,1s1-0.447,1-1v-2h1
		c0.552,0,1-0.447,1-1S40.552,43.5,40,43.5z"/>
	<path style="fill:#E7ECED;" d="M48,43.5h-4c-0.552,0-1,0.447-1,1s0.448,1,1,1h1v2c0,0.553,0.448,1,1,1s1-0.447,1-1v-2h1
		c0.552,0,1-0.447,1-1S48.552,43.5,48,43.5z"/>
	<path style="fill:#E7ECED;" d="M19,38.5h1c0.552,0,1-0.447,1-1s-0.448-1-1-1h-4c-0.552,0-1,0.447-1,1s0.448,1,1,1h1v2
		c0,0.553,0.448,1,1,1s1-0.447,1-1V38.5z"/>
	<path style="fill:#E7ECED;" d="M27,38.5h1c0.552,0,1-0.447,1-1s-0.448-1-1-1h-4c-0.552,0-1,0.447-1,1s0.448,1,1,1h1v2
		c0,0.553,0.448,1,1,1s1-0.447,1-1V38.5z"/>
	<path style="fill:#E7ECED;" d="M35,38.5h1c0.552,0,1-0.447,1-1s-0.448-1-1-1h-4c-0.552,0-1,0.447-1,1s0.448,1,1,1h1v2
		c0,0.553,0.448,1,1,1s1-0.447,1-1V38.5z"/>
	<path style="fill:#E7ECED;" d="M43,38.5h1c0.552,0,1-0.447,1-1s-0.448-1-1-1h-4c-0.552,0-1,0.447-1,1s0.448,1,1,1h1v2
		c0,0.553,0.448,1,1,1s1-0.447,1-1V38.5z"/>
</g>
<g>
	<path style="fill:#283238;" d="M22,28.5c-0.552,0-1,0.447-1,1v4c0,0.553,0.448,1,1,1s1-0.447,1-1v-4C23,28.947,22.552,28.5,22,28.5
		z"/>
	<path style="fill:#283238;" d="M26,28.5c-0.552,0-1,0.447-1,1v4c0,0.553,0.448,1,1,1s1-0.447,1-1v-4C27,28.947,26.552,28.5,26,28.5
		z"/>
	<path style="fill:#283238;" d="M30,28.5c-0.552,0-1,0.447-1,1v4c0,0.553,0.448,1,1,1s1-0.447,1-1v-4C31,28.947,30.552,28.5,30,28.5
		z"/>
	<path style="fill:#283238;" d="M34,28.5c-0.552,0-1,0.447-1,1v4c0,0.553,0.448,1,1,1s1-0.447,1-1v-4C35,28.947,34.552,28.5,34,28.5
		z"/>
	<path style="fill:#283238;" d="M38,28.5c-0.552,0-1,0.447-1,1v4c0,0.553,0.448,1,1,1s1-0.447,1-1v-4C39,28.947,38.552,28.5,38,28.5
		z"/>
</g>
<path style="fill:#CBD4D8;" d="M5,29.5H2v-7h3c0.552,0,1-0.447,1-1s-0.448-1-1-1H0v11h5V29.5z"/>
<g>
</g>
<g>
</g>
<g>
</g>
<g>
</g>
<g>
</g>
<g>
</g>
<g>
</g>
<g>
</g>
<g>
</g>
<g>
</g>
<g>
</g>
<g>
</g>
<g>
</g>
<g>
</g>
<g>
</g>
</svg>
